<svg width="25" height="27" viewBox="0 0 25 27" fill="none" xmlns="http://www.w3.org/2000/svg">
<path d="M17.8674 16.6359H16.7381L16.3379 16.2276C17.7871 14.4491 18.5836 12.1785 18.582 9.83031C18.582 7.88606 18.0371 5.98547 17.0162 4.36888C15.9953 2.7523 14.5443 1.49232 12.8465 0.748292C11.1488 0.00425932 9.28072 -0.190413 7.47844 0.188891C5.67616 0.568195 4.02065 1.50444 2.72128 2.87923C1.42191 4.25403 0.537025 6.00562 0.178529 7.91251C-0.179968 9.8194 0.00402566 11.7959 0.707241 13.5922C1.41046 15.3885 2.60131 16.9237 4.12921 18.0039C5.65711 19.0841 7.45343 19.6606 9.29103 19.6606C11.5923 19.6606 13.7078 18.7683 15.3373 17.2862L15.7233 17.7097V18.9044L22.8702 26.4511L25 24.1977L17.8674 16.6359ZM9.29103 16.6359C5.73185 16.6359 2.85878 13.5961 2.85878 9.83031C2.85878 6.06454 5.73185 3.02471 9.29103 3.02471C12.8502 3.02471 15.7233 6.06454 15.7233 9.83031C15.7233 13.5961 12.8502 16.6359 9.29103 16.6359Z" fill="#092240"/>
</svg>
